<?xml version="1.0" encoding="UTF-8" standalone="no"?>
<svg
   xmlns:dc="http://purl.org/dc/elements/1.1/"
   xmlns:cc="http://creativecommons.org/ns#"
   xmlns:rdf="http://www.w3.org/1999/02/22-rdf-syntax-ns#"
   xmlns:svg="http://www.w3.org/2000/svg"
   xmlns="http://www.w3.org/2000/svg"
   viewBox="0 0 221.33333 202.66667"
   height="202.66667"
   width="221.33333"
   xml:space="preserve"
   id="svg2"
   version="1.1"><metadata
     id="metadata8"><rdf:RDF><cc:Work
         rdf:about=""><dc:format>image/svg+xml</dc:format><dc:type
           rdf:resource="http://purl.org/dc/dcmitype/StillImage" /></cc:Work></rdf:RDF></metadata><defs
     id="defs6"><clipPath
       id="clipPath18"
       clipPathUnits="userSpaceOnUse"><path
         id="path16"
         d="M 0,152 H 166 V 0 H 0 Z" /></clipPath></defs><g
     transform="matrix(1.3333333,0,0,-1.3333333,0,202.66667)"
     id="g10"><g
       id="g12"><g
         clip-path="url(#clipPath18)"
         id="g14"><g
           transform="translate(155.7642,2.0806)"
           id="g20"><path
             id="path22"
             style="fill:#a56a53;fill-opacity:1;fill-rule:nonzero;stroke:none"
             d="m 0,0 h -113.827 -32.033 c 10.596,41.604 21.242,83.16 31.838,124.765 -1.611,2.295 -4.541,6.983 -4.932,12.501 -0.195,2.686 0.293,4.297 0.782,5.322 0.39,0.879 1.367,2.979 3.711,4.249 1.66,0.928 3.174,1.025 4.15,1.074 0,0 2.344,0.147 4.933,-0.781 3.466,-1.221 8.252,-5.713 12.256,-12.55 3.955,1.611 7.325,2.539 9.767,3.076 2.099,0.44 3.808,0.733 4.688,0.83 2.197,0.293 4.15,0.44 5.81,0.538 1.661,-0.049 3.614,-0.196 5.811,-0.538 0.83,-0.097 2.588,-0.39 4.688,-0.83 2.441,-0.537 5.811,-1.465 9.767,-3.076 4.004,6.837 8.789,11.329 12.256,12.55 2.588,0.928 4.932,0.781 4.932,0.781 0.928,-0.049 2.49,-0.146 4.151,-1.074 2.344,-1.319 3.32,-3.37 3.711,-4.249 0.488,-1.025 0.977,-2.685 0.781,-5.322 -0.39,-5.567 -3.32,-10.206 -4.931,-12.501 z" /></g><g
           transform="translate(12.4775,4.0806)"
           id="g24"><path
             id="path26"
             style="fill:#000000;fill-opacity:1;fill-rule:nonzero;stroke:none"
             d="m 0,0 h 140.715 l -31.284,123.163 0.527,0.752 c 2.777,3.955 4.316,7.821 4.574,11.491 0.131,1.771 -0.069,3.223 -0.592,4.323 -0.456,1.024 -1.226,2.431 -2.886,3.365 -1.28,0.715 -2.529,0.781 -3.275,0.82 -0.032,-10e-4 -2.014,0.099 -4.153,-0.667 -2.743,-0.966 -7.264,-4.949 -11.205,-11.678 l -0.876,-1.495 -1.604,0.654 c -3.18,1.295 -6.357,2.296 -9.442,2.975 -2.018,0.422 -3.714,0.706 -4.492,0.797 -1.888,0.293 -3.731,0.465 -5.549,0.522 -1.441,-0.085 -3.362,-0.223 -5.575,-0.518 -0.742,-0.083 -2.29,-0.334 -4.542,-0.805 -3.065,-0.675 -6.242,-1.676 -9.422,-2.971 l -1.605,-0.654 -0.875,1.495 c -3.941,6.729 -8.462,10.712 -11.195,11.675 -2.148,0.769 -4.129,0.669 -4.151,0.671 -0.805,-0.041 -1.997,-0.101 -3.292,-0.824 -1.825,-0.989 -2.576,-2.679 -2.859,-3.315 -0.551,-1.158 -0.745,-2.571 -0.614,-4.365 0.256,-3.626 1.838,-7.6 4.573,-11.496 l 0.529,-0.753 -0.227,-0.891 C 25.899,101.448 20.583,80.636 15.268,59.825 10.174,39.886 5.082,19.949 0,0 M 145.858,-4 H -5.146 l 0.635,2.494 c 5.292,20.781 10.598,41.551 15.903,62.32 5.241,20.519 10.482,41.038 15.711,61.568 -2.868,4.298 -4.47,8.581 -4.765,12.743 -0.182,2.5 0.136,4.57 0.971,6.323 0.37,0.836 1.565,3.523 4.564,5.148 2.089,1.167 4.057,1.265 5.003,1.313 0.09,0.006 2.765,0.158 5.707,-0.896 3.918,-1.38 8.588,-5.899 12.416,-11.956 2.859,1.082 5.712,1.939 8.502,2.552 2.05,0.43 3.873,0.752 4.897,0.866 2.345,0.313 4.395,0.456 5.914,0.546 l 0.088,0.005 0.088,-0.003 c 2.013,-0.059 4.052,-0.248 6.06,-0.56 0.729,-0.084 2.485,-0.366 4.791,-0.849 2.807,-0.617 5.662,-1.475 8.522,-2.557 3.828,6.057 8.498,10.576 12.427,11.959 2.932,1.051 5.61,0.897 5.72,0.891 0.93,-0.049 2.905,-0.153 5.002,-1.324 3.013,-1.695 4.18,-4.32 4.563,-5.182 0.804,-1.688 1.131,-3.818 0.948,-6.283 -0.291,-4.152 -1.893,-8.435 -4.765,-12.737 z" /></g><g
           transform="translate(102.5376,85.4849)"
           id="g28"><path
             id="path30"
             style="fill:#d4a36f;fill-opacity:1;fill-rule:nonzero;stroke:none"
             d="m 0,0 c -0.049,-0.439 -0.098,-0.83 -0.146,-1.025 -0.831,-4.151 -3.516,-6.739 -4.395,-7.569 -2.344,-2.198 -4.834,-3.126 -6.446,-3.76 -3.418,-1.27 -6.543,-1.514 -8.546,-1.514 h -0.293 c -2.002,0 -5.127,0.244 -8.545,1.514 -1.66,0.634 -4.102,1.562 -6.446,3.76 -0.879,0.83 -3.613,3.418 -4.395,7.569 -0.049,0.195 -0.098,0.537 -0.146,1.025 -0.44,3.663 0.977,6.836 2.295,9.229 0.879,1.709 2.832,4.297 5.127,7.13 1.416,1.758 2.979,3.613 4.59,5.371 2.833,3.174 5.665,6.104 7.667,7.862 l 0.097,0.098 c 0.049,0 0.049,-0.049 0.098,-0.098 2.003,-1.758 4.835,-4.688 7.667,-7.862 1.563,-1.758 3.125,-3.613 4.59,-5.371 2.295,-2.833 4.2,-5.421 5.127,-7.13 C -1.025,6.788 0.439,3.663 0,0" /></g><g
           transform="translate(84.6812,116.2339)"
           id="g32"><path
             id="path34"
             style="fill:#000000;fill-opacity:1;fill-rule:nonzero;stroke:none"
             d="M 0,0 0.034,-0.052 C 0.024,-0.036 0.013,-0.019 0,0 m -3.369,-2.155 c 0.013,-0.02 0.026,-0.04 0.039,-0.06 z m 1.644,-1.626 c -1.739,-1.654 -3.948,-3.965 -6.272,-6.569 -1.43,-1.561 -2.947,-3.336 -4.524,-5.295 -2.607,-3.216 -4.211,-5.436 -4.907,-6.789 -1.183,-2.149 -2.462,-4.959 -2.088,-8.077 0.06,-0.595 0.097,-0.763 0.101,-0.78 l 0.025,-0.113 c 0.663,-3.52 3.026,-5.752 3.803,-6.485 2.042,-1.914 4.193,-2.737 5.765,-3.338 3.094,-1.149 5.978,-1.39 7.853,-1.39 h 0.293 c 1.875,0 4.759,0.241 7.849,1.389 l 0.152,0.06 c 1.539,0.605 3.647,1.432 5.623,3.284 2.044,1.93 3.324,4.12 3.801,6.502 0.054,0.244 0.084,0.533 0.12,0.854 l 0.002,0.017 c 0.356,2.972 -0.796,5.584 -1.813,7.888 l -0.097,0.218 c -0.811,1.469 -2.542,3.863 -4.885,6.756 -1.341,1.607 -2.943,3.514 -4.532,5.302 -2.321,2.602 -4.531,4.913 -6.269,6.566 m 0.049,-42.836 h -0.293 c -2.203,0 -5.595,0.284 -9.242,1.639 -1.814,0.694 -4.497,1.719 -7.117,4.176 -1.012,0.955 -4.068,3.842 -4.984,8.608 -0.067,0.294 -0.124,0.682 -0.18,1.246 -0.506,4.212 1.088,7.769 2.534,10.393 0.808,1.574 2.508,3.949 5.325,7.424 1.627,2.02 3.199,3.86 4.669,5.464 2.972,3.33 5.806,6.236 7.772,7.97 l 0.638,0.638 h 1.944 l 0.498,-0.768 c 1.959,-1.746 4.728,-4.592 7.644,-7.86 1.629,-1.833 3.256,-3.77 4.634,-5.423 1.808,-2.23 4.186,-5.313 5.349,-7.455 l 0.202,-0.443 c 1.102,-2.496 2.61,-5.913 2.126,-9.97 -0.074,-0.669 -0.127,-1.017 -0.193,-1.281 -0.621,-3.118 -2.297,-6.022 -4.962,-8.538 -2.54,-2.382 -5.164,-3.412 -6.9,-4.094 l -0.185,-0.073 c -3.684,-1.369 -7.076,-1.653 -9.279,-1.653" /></g><g
           transform="translate(82.8096,97.3022)"
           id="g36"><path
             id="path38"
             style="fill:#000000;fill-opacity:1;fill-rule:nonzero;stroke:none"
             d="m 0,0 c 6.122,0 11.085,-1.793 11.085,-4.004 0,-2.212 -4.963,-4.004 -11.085,-4.004 -6.122,0 -11.084,1.792 -11.084,4.004 C -11.084,-1.793 -6.122,0 0,0" /></g><g
           transform="translate(82.8096,95.8022)"
           id="g40"><path
             id="path42"
             style="fill:#000000;fill-opacity:1;fill-rule:nonzero;stroke:none"
             d="m 0,0 c -6.458,0 -9.501,-1.902 -9.584,-2.506 0.083,-0.6 3.126,-2.502 9.584,-2.502 6.458,0 9.501,1.902 9.585,2.507 C 9.501,-1.902 6.458,0 0,0 m 0,-8.008 c -6.061,0 -12.584,1.722 -12.584,5.504 C -12.584,1.278 -6.061,3 0,3 6.062,3 12.585,1.278 12.585,-2.504 12.585,-6.286 6.062,-8.008 0,-8.008" /></g><g
           transform="translate(55.415,107.166)"
           id="g44"><path
             id="path46"
             style="fill:#000000;fill-opacity:1;fill-rule:nonzero;stroke:none"
             d="m 0,0 c 2.239,0 4.053,-1.727 4.053,-3.857 0,-2.131 -1.814,-3.858 -4.053,-3.858 -2.238,0 -4.053,1.727 -4.053,3.858 C -4.053,-1.727 -2.238,0 0,0" /></g><g
           transform="translate(55.415,106.6665)"
           id="g48"><path
             id="path50"
             style="fill:#000000;fill-opacity:1;fill-rule:nonzero;stroke:none"
             d="m 0,0 c -1.959,0 -3.553,-1.506 -3.553,-3.358 0,-1.851 1.594,-3.357 3.553,-3.357 1.959,0 3.553,1.506 3.553,3.357 C 3.553,-1.506 1.959,0 0,0 m 0,-7.715 c -2.51,0 -4.553,1.954 -4.553,4.357 C -4.553,-0.955 -2.51,1 0,1 2.511,1 4.553,-0.955 4.553,-3.358 4.553,-5.761 2.511,-7.715 0,-7.715" /></g><g
           transform="translate(110.1064,107.166)"
           id="g52"><path
             id="path54"
             style="fill:#000000;fill-opacity:1;fill-rule:nonzero;stroke:none"
             d="m 0,0 c 2.239,0 4.053,-1.727 4.053,-3.857 0,-2.131 -1.814,-3.858 -4.053,-3.858 -2.238,0 -4.053,1.727 -4.053,3.858 C -4.053,-1.727 -2.238,0 0,0" /></g><g
           transform="translate(110.1064,106.6665)"
           id="g56"><path
             id="path58"
             style="fill:#000000;fill-opacity:1;fill-rule:nonzero;stroke:none"
             d="m 0,0 c -1.959,0 -3.553,-1.506 -3.553,-3.358 0,-1.851 1.594,-3.357 3.553,-3.357 1.959,0 3.553,1.506 3.553,3.357 C 3.553,-1.506 1.959,0 0,0 m 0,-7.715 c -2.51,0 -4.553,1.954 -4.553,4.357 C -4.553,-0.955 -2.51,1 0,1 2.511,1 4.553,-0.955 4.553,-3.358 4.553,-5.761 2.511,-7.715 0,-7.715" /></g><g
           transform="translate(143.7031,2.0806)"
           id="g60"><path
             id="path62"
             style="fill:#102047;fill-opacity:1;fill-rule:nonzero;stroke:none"
             d="M 0,0 C -8.302,25.393 -33.108,42.776 -60.894,42.63 -88.435,42.483 -112.899,25.197 -121.152,0 Z" /></g><g
           transform="translate(25.3809,4.0806)"
           id="g64"><path
             id="path66"
             style="fill:#000000;fill-opacity:1;fill-rule:nonzero;stroke:none"
             d="M 0,0 H 115.491 C 106.714,22.913 83.412,38.631 57.77,38.631 57.659,38.631 57.55,38.63 57.439,38.63 31.532,38.492 8.802,23.083 0,0 M 121.08,-4 H -5.589 l 0.859,2.623 c 8.571,26.169 33.547,43.855 62.148,44.007 28.454,0.179 54.285,-17.947 62.805,-44.008 z" /></g><g
           transform="translate(122.8027,2.0806)"
           id="g68"><path
             id="path70"
             style="fill:#9d6247;fill-opacity:1;fill-rule:nonzero;stroke:none"
             d="M 0,0 C -6.397,15.821 -22.414,26.32 -40.14,26.271 -56.986,26.223 -68.657,15.772 -69.927,14.601 -75.64,9.278 -78.521,3.564 -79.986,0.049 h 22.707 C -38.186,0 -19.093,0 0,0" /></g><g
           transform="translate(45.936,4.1294)"
           id="g72"><path
             id="path74"
             style="fill:#000000;fill-opacity:1;fill-rule:nonzero;stroke:none"
             d="M 0,0 H 19.587 C 37.635,-0.046 55.964,-0.049 73.77,-0.049 67.035,13.395 52.58,22.223 36.849,22.223 H 36.732 C 20.774,22.176 9.526,12.218 8.296,11.082 4.907,7.924 2.123,4.205 0,0 m 79.833,-4.049 h -2.966 c -18.775,0 -38.189,0 -57.284,0.049 H -6.12 l 1.154,2.77 c 2.453,5.883 6,11.013 10.543,15.245 2.204,2.035 14.035,12.158 31.144,12.208 h 0.127 c 18.396,0 35.212,-11.047 41.873,-27.522 z" /></g><g
           transform="translate(60.5913,24.2988)"
           id="g76"><path
             id="path78"
             style="fill:#102047;fill-opacity:1;fill-rule:nonzero;stroke:none"
             d="M 0,0 22.267,-22.218 H 3.516 l -13.673,13.673" /></g><g
           transform="translate(87.6943,0.0806)"
           id="g80"><path
             id="path82"
             style="fill:#000000;fill-opacity:1;fill-rule:nonzero;stroke:none"
             d="m 0,0 h -24.416 l -14.258,14.259 2.828,2.828 L -22.758,4 h 13.086 l -18.844,18.803 2.826,2.831 z" /></g><g
           transform="translate(105.126,24.2988)"
           id="g84"><path
             id="path86"
             style="fill:#102047;fill-opacity:1;fill-rule:nonzero;stroke:none"
             d="M 0,0 -22.268,-22.218 H -3.565 L 10.108,-8.545" /></g><g
           transform="translate(102.3896,0.0806)"
           id="g88"><path
             id="path90"
             style="fill:#000000;fill-opacity:1;fill-rule:nonzero;stroke:none"
             d="M 0,0 H -24.367 L 1.324,25.634 4.149,22.802 -14.695,4 h 13.038 l 13.087,13.087 2.828,-2.828 z" /></g><g
           transform="translate(22.2095,2.0317)"
           id="g92"><path
             id="path94"
             style="fill:#a56a53;fill-opacity:1;fill-rule:nonzero;stroke:none"
             d="m 0,0 c 1.368,4.102 3.516,9.229 7.129,14.552 2.003,3.027 4.102,5.567 6.104,7.666 1.124,-0.976 2.931,-2.343 5.47,-2.881 7.129,-1.563 13.184,4.541 14.307,5.665 1.466,1.465 5.177,5.127 5.323,10.498 0.195,7.423 -6.543,13.185 -12.257,15.431 -6.299,2.491 -12.11,0.977 -14.552,0.293 C 5.079,49.466 1.124,45.707 -1.074,43.509 -14.405,30.471 -19.142,3.857 -19.826,-0.049 -13.233,0 -6.592,0 0,0" /></g><g
           transform="translate(40.8823,52.3447)"
           id="g96"><path
             id="path98"
             style="fill:#000000;fill-opacity:1;fill-rule:nonzero;stroke:none"
             d="m 0,0 c -2.987,0 -5.396,-0.675 -6.609,-1.014 -6.214,-1.695 -9.935,-5.416 -11.724,-7.204 -10.924,-10.684 -15.994,-31.192 -17.755,-40.128 5.334,0.03 10.725,0.033 15.99,0.033 1.778,4.98 4.042,9.466 6.9,13.675 1.863,2.817 3.991,5.49 6.311,7.924 l 1.318,1.381 1.442,-1.252 c 0.957,-0.832 2.472,-1.99 4.571,-2.434 5.252,-1.149 10.061,2.704 12.46,5.103 1.428,1.427 4.634,4.63 4.757,9.158 0.175,6.676 -6.476,11.74 -10.99,13.515 C 4.312,-0.31 2.023,0 0,0 m -40.882,-52.379 0.413,2.362 c 1.277,7.288 6.441,32.044 19.323,44.643 1.858,1.858 6.246,6.244 13.471,8.215 2.147,0.601 8.72,2.441 15.814,-0.362 6.661,-2.62 13.736,-9.166 13.521,-17.344 -0.167,-6.123 -4.31,-10.263 -5.869,-11.822 -5.199,-5.199 -10.926,-7.395 -16.189,-6.242 -2.042,0.432 -3.684,1.336 -4.821,2.122 -1.685,-1.895 -3.246,-3.925 -4.656,-6.057 -2.921,-4.303 -5.174,-8.903 -6.9,-14.082 l -0.456,-1.367 h -1.442 c -6.502,0 -13.226,0 -19.811,-0.049 z" /></g><g
           transform="translate(31.439,28.3032)"
           id="g100"><path
             id="path102"
             style="fill:#a56a53;fill-opacity:1;fill-rule:nonzero;stroke:none"
             d="M 0,0 4.004,-4.004" /></g><g
           transform="translate(34.0288,22.8848)"
           id="g104"><path
             id="path106"
             style="fill:#000000;fill-opacity:1;fill-rule:nonzero;stroke:none"
             d="M 0,0 -4.004,4.004 -1.176,6.833 2.828,2.828 Z" /></g><g
           transform="translate(44.4282,32.7954)"
           id="g108"><path
             id="path110"
             style="fill:#a56a53;fill-opacity:1;fill-rule:nonzero;stroke:none"
             d="M 0,0 C 0.928,-0.586 2.49,-1.807 3.711,-3.809 5.029,-5.957 5.518,-8.643 5.616,-9.717" /></g><g
           transform="translate(48.0522,22.897)"
           id="g112"><path
             id="path114"
             style="fill:#000000;fill-opacity:1;fill-rule:nonzero;stroke:none"
             d="m 0,0 c -0.089,0.978 -0.542,3.29 -1.618,5.044 -1.093,1.793 -2.514,2.81 -3.075,3.164 l 2.138,3.381 C -1.564,10.963 0.319,9.55 1.794,7.131 3.59,4.205 3.949,0.747 3.983,0.362 Z" /></g><g
           transform="translate(51.8018,39.2412)"
           id="g116"><path
             id="path118"
             style="fill:#a56a53;fill-opacity:1;fill-rule:nonzero;stroke:none"
             d="M 0,0 C 0.928,-0.586 2.49,-1.807 3.711,-3.809 5.03,-5.958 5.518,-8.643 5.616,-9.717" /></g><g
           transform="translate(55.4258,29.3428)"
           id="g120"><path
             id="path122"
             style="fill:#000000;fill-opacity:1;fill-rule:nonzero;stroke:none"
             d="m 0,0 c -0.089,0.978 -0.542,3.291 -1.618,5.043 -1.093,1.794 -2.514,2.811 -3.075,3.165 l 2.138,3.381 C -1.564,10.963 0.319,9.55 1.794,7.131 3.59,4.207 3.949,0.747 3.983,0.362 Z" /></g><g
           transform="translate(144.1914,2.0317)"
           id="g124"><path
             id="path126"
             style="fill:#a56a53;fill-opacity:1;fill-rule:nonzero;stroke:none"
             d="m 0,0 c -1.368,4.102 -3.516,9.229 -7.129,14.552 -2.003,3.027 -4.102,5.567 -6.104,7.666 -1.124,-0.976 -2.931,-2.343 -5.47,-2.881 -7.129,-1.563 -13.184,4.541 -14.307,5.665 -1.466,1.465 -5.177,5.127 -5.323,10.498 -0.195,7.423 6.543,13.185 12.257,15.431 6.299,2.491 12.11,0.977 14.552,0.293 6.445,-1.758 10.4,-5.517 12.598,-7.715 C 14.405,30.471 19.142,3.857 19.826,-0.049 13.282,0 6.641,0 0,0" /></g><g
           transform="translate(145.6167,4.0317)"
           id="g128"><path
             id="path130"
             style="fill:#000000;fill-opacity:1;fill-rule:nonzero;stroke:none"
             d="M 0,0 C 5.28,0 10.685,-0.003 15.99,-0.033 14.229,8.904 9.16,29.41 -1.75,40.08 c -1.804,1.803 -5.525,5.524 -11.726,7.215 -2.045,0.572 -7.448,2.085 -13.29,-0.223 -4.517,-1.777 -11.169,-6.841 -10.993,-13.519 0.123,-4.526 3.329,-7.729 4.698,-9.097 2.458,-2.458 7.267,-6.312 12.505,-5.165 2.113,0.447 3.628,1.605 4.585,2.437 l 1.442,1.252 1.318,-1.381 c 2.32,-2.434 4.448,-5.107 6.324,-7.944 C -4.042,9.464 -1.778,4.98 0,0 m 20.784,-4.067 -2.399,0.018 C 11.85,-4 5.101,-4 -1.425,-4 h -1.442 l -0.456,1.367 c -1.726,5.179 -3.979,9.779 -6.886,14.061 -1.421,2.149 -2.985,4.183 -4.67,6.078 -1.139,-0.786 -2.784,-1.692 -4.835,-2.125 -5.251,-1.15 -10.977,1.047 -16.117,6.188 -1.617,1.616 -5.76,5.756 -5.926,11.877 -0.216,8.18 6.859,14.726 13.524,17.347 7.09,2.802 13.663,0.962 15.822,0.357 7.213,-1.967 11.6,-6.353 13.474,-8.226 C 13.93,30.34 19.094,5.583 20.371,-1.704 Z" /></g><g
           transform="translate(135.0107,28.3032)"
           id="g132"><path
             id="path134"
             style="fill:#a56a53;fill-opacity:1;fill-rule:nonzero;stroke:none"
             d="M 0,0 -4.004,-4.004" /></g><g
           transform="translate(132.4209,22.8848)"
           id="g136"><path
             id="path138"
             style="fill:#000000;fill-opacity:1;fill-rule:nonzero;stroke:none"
             d="M 0,0 -2.828,2.828 1.176,6.833 4.004,4.004 Z" /></g><g
           transform="translate(122.0215,32.7954)"
           id="g140"><path
             id="path142"
             style="fill:#a56a53;fill-opacity:1;fill-rule:nonzero;stroke:none"
             d="M 0,0 C -0.928,-0.586 -2.49,-1.807 -3.711,-3.809 -5.029,-5.957 -5.518,-8.643 -5.616,-9.717" /></g><g
           transform="translate(118.3975,22.897)"
           id="g144"><path
             id="path146"
             style="fill:#000000;fill-opacity:1;fill-rule:nonzero;stroke:none"
             d="m 0,0 -3.983,0.362 c 0.034,0.385 0.393,3.843 2.191,6.774 1.473,2.414 3.356,3.827 4.347,4.453 L 4.693,8.208 C 4.132,7.854 2.711,6.837 1.621,5.049 0.542,3.29 0.089,0.978 0,0" /></g><g
           transform="translate(114.5991,39.2412)"
           id="g148"><path
             id="path150"
             style="fill:#a56a53;fill-opacity:1;fill-rule:nonzero;stroke:none"
             d="M 0,0 C -0.928,-0.586 -2.49,-1.807 -3.711,-3.809 -5.03,-5.958 -5.518,-8.643 -5.616,-9.717" /></g><g
           transform="translate(110.9751,29.3428)"
           id="g152"><path
             id="path154"
             style="fill:#000000;fill-opacity:1;fill-rule:nonzero;stroke:none"
             d="m 0,0 -3.983,0.362 c 0.034,0.385 0.393,3.845 2.191,6.774 1.473,2.414 3.356,3.827 4.347,4.453 L 4.693,8.208 C 4.132,7.854 2.711,6.837 1.621,5.049 0.542,3.291 0.089,0.978 0,0" /></g></g></g></g></svg>