<svg id="Layer_1" data-name="Layer 1" xmlns="http://www.w3.org/2000/svg" xmlns:xlink="http://www.w3.org/1999/xlink" viewBox="0 0 166.4 152.04"><defs><style>.cls-1{fill:none;}.cls-2{clip-path:url(#clip-path);}.cls-3,.cls-7{fill:#a56a53;}.cls-4{fill:#d4a36f;}.cls-5{fill:#102047;}.cls-6{fill:#9d6247;}.cls-7{stroke:#000;stroke-miterlimit:10;stroke-width:4px;}</style><clipPath id="clip-path" transform="translate(0 0)"><rect class="cls-1" width="166" height="151.5"/></clipPath></defs><title>bp_logo</title><g class="cls-2"><path class="cls-3" d="M155.76,149.92H9.9Q25.8,87.51,41.74,25.15c-1.61-2.29-4.54-7-4.93-12.5a10.27,10.27,0,0,1,.78-5.32A8.61,8.61,0,0,1,41.3,3.08,8.92,8.92,0,0,1,45.45,2a13.67,13.67,0,0,1,4.94.78C53.85,4,58.64,8.5,62.64,15.34a61.14,61.14,0,0,1,9.77-3.08c2.1-.44,3.81-.73,4.69-.83,2.19-.29,4.15-.44,5.81-.53a45.24,45.24,0,0,1,5.81.53c.83.1,2.59.39,4.69.83a60.77,60.77,0,0,1,9.76,3.08C107.18,8.5,112,4,115.43,2.79A13.63,13.63,0,0,1,120.36,2a9,9,0,0,1,4.15,1.07,8.77,8.77,0,0,1,3.71,4.25,10.27,10.27,0,0,1,.78,5.32c-.39,5.57-3.32,10.21-4.93,12.5Z" transform="translate(0 0)"/><path d="M158.34,151.92H7.33L8,149.43q7.94-31.19,15.9-62.32,7.86-30.78,15.71-61.57A26.4,26.4,0,0,1,34.82,12.8a12.22,12.22,0,0,1,1-6.33,10.55,10.55,0,0,1,4.56-5.15,11.08,11.08,0,0,1,5-1.31,15.6,15.6,0,0,1,5.71.9c3.92,1.38,8.59,5.9,12.42,12A61.1,61.1,0,0,1,72,10.31c2-.43,3.87-.75,4.9-.87,2.34-.31,4.39-.45,5.91-.54H83A47.73,47.73,0,0,1,89,9.46c.72.08,2.48.36,4.79.85a60.94,60.94,0,0,1,8.52,2.55c3.83-6,8.5-10.57,12.43-12A16,16,0,0,1,120.49,0a11.09,11.09,0,0,1,5,1.33,10.71,10.71,0,0,1,4.56,5.18A12.54,12.54,0,0,1,131,12.8a26.36,26.36,0,0,1-4.77,12.74Zm-145.86-4H153.19L121.91,24.76l.53-.76A23.17,23.17,0,0,0,127,12.51a8.68,8.68,0,0,0-.59-4.32,6.85,6.85,0,0,0-2.89-3.36A7.11,7.11,0,0,0,120.26,4a12,12,0,0,0-4.16.66c-2.74,1-7.26,4.95-11.2,11.68l-.88,1.5-1.6-.66a59.23,59.23,0,0,0-9.44-3c-2-.43-3.72-.71-4.5-.8a44.44,44.44,0,0,0-5.54-.52c-1.45.08-3.37.22-5.58.52-.74.08-2.29.33-4.54.8a59.34,59.34,0,0,0-9.42,3l-1.61.66-.87-1.5C57,9.62,52.45,5.64,49.72,4.68A12.35,12.35,0,0,0,45.57,4a7.2,7.2,0,0,0-3.29.83,6.67,6.67,0,0,0-2.86,3.31,8.48,8.48,0,0,0-.61,4.37A23.32,23.32,0,0,0,43.38,24l.53.76-.23.89Q35.73,56.88,27.75,88.09,20.1,118,12.48,147.92Z" transform="translate(0 0)"/><path class="cls-4" d="M102.54,66.52a9.85,9.85,0,0,1-.15,1A14.41,14.41,0,0,1,98,75.11a18.86,18.86,0,0,1-6.45,3.76A24.69,24.69,0,0,1,83,80.38h-.3a24.66,24.66,0,0,1-8.54-1.51,18.33,18.33,0,0,1-6.45-3.76,14.09,14.09,0,0,1-4.39-7.57,8,8,0,0,1-.15-1c-.44-3.67,1-6.84,2.29-9.23a51.39,51.39,0,0,1,5.13-7.13c1.42-1.76,3-3.62,4.59-5.38a101.76,101.76,0,0,1,7.67-7.86l.1-.09c.05,0,.05,0,.09.09a99.94,99.94,0,0,1,7.67,7.86c1.56,1.76,3.13,3.62,4.59,5.38a55.05,55.05,0,0,1,5.13,7.13C101.51,59.73,103,62.85,102.54,66.52Z" transform="translate(0 0)"/><path d="M83,82.38h-.29a26.77,26.77,0,0,1-9.24-1.64,20.09,20.09,0,0,1-7.12-4.17,16,16,0,0,1-5-8.61,10.4,10.4,0,0,1-.18-1.25c-.51-4.21,1.09-7.77,2.53-10.39a50.56,50.56,0,0,1,5.33-7.42c1.63-2,3.2-3.86,4.67-5.47a103.32,103.32,0,0,1,7.77-8l.64-.63h1.94l.5.76a106.41,106.41,0,0,1,7.64,7.86c1.63,1.84,3.26,3.77,4.64,5.43a61.07,61.07,0,0,1,5.35,7.45l.2.44c1.1,2.5,2.61,5.92,2.12,10a9.23,9.23,0,0,1-.19,1.29,16.08,16.08,0,0,1-5,8.53,20.17,20.17,0,0,1-6.9,4.1l-.19.07A26.85,26.85,0,0,1,83,82.38Zm0-42.83c-1.74,1.65-3.95,4-6.28,6.57-1.43,1.56-2.94,3.33-4.52,5.29a49,49,0,0,0-4.91,6.79c-1.18,2.15-2.46,5-2.08,8.08a6.34,6.34,0,0,0,.1.78l0,.11a12.2,12.2,0,0,0,3.8,6.49A16.47,16.47,0,0,0,74.86,77a22.81,22.81,0,0,0,7.85,1.39H83A22.78,22.78,0,0,0,90.85,77l.16-.06a16.4,16.4,0,0,0,5.62-3.28,12.28,12.28,0,0,0,3.8-6.5c0-.25.08-.53.12-.86h0c.36-3-.79-5.59-1.81-7.89l-.1-.22a54.84,54.84,0,0,0-4.88-6.75c-1.34-1.61-3-3.52-4.53-5.31C86.9,43.51,84.69,41.2,83,39.55Zm-1.65-1.63a.21.21,0,0,1,0,.06Zm3.37-2.15,0,0S84.69,35.79,84.68,35.77Z" transform="translate(0 0)"/><ellipse cx="82.81" cy="58.7" rx="11.08" ry="4"/><path d="M82.81,64.21c-6.06,0-12.58-1.73-12.58-5.51s6.52-5.5,12.58-5.5,12.58,1.72,12.58,5.5S88.87,64.21,82.81,64.21Zm0-8c-6.46,0-9.5,1.9-9.58,2.5.08.6,3.12,2.51,9.58,2.51s9.5-1.91,9.58-2.51C92.31,58.1,89.27,56.2,82.81,56.2Z" transform="translate(0 0)"/><ellipse cx="55.42" cy="48.69" rx="4.05" ry="3.86"/><path d="M55.42,53.05A4.36,4.36,0,1,1,60,48.69,4.47,4.47,0,0,1,55.42,53.05Zm0-7.72A3.37,3.37,0,1,0,59,48.69,3.47,3.47,0,0,0,55.42,45.33Z" transform="translate(0 0)"/><ellipse cx="110.11" cy="48.69" rx="4.05" ry="3.86"/><path d="M110.11,53.05a4.36,4.36,0,1,1,4.55-4.36A4.47,4.47,0,0,1,110.11,53.05Zm0-7.72a3.37,3.37,0,1,0,3.55,3.36A3.47,3.47,0,0,0,110.11,45.33Z" transform="translate(0 0)"/><path class="cls-5" d="M143.7,149.92c-8.3-25.39-33.1-42.78-60.89-42.63-27.54.15-52,17.43-60.26,42.63Z" transform="translate(0 0)"/><path d="M146.46,151.92H19.79l.86-2.62c8.57-26.17,33.55-43.86,62.15-44s54.28,17.95,62.8,44Zm-121.08-4H140.87c-8.78-22.91-32.08-38.63-57.72-38.63h-.33C56.91,109.43,34.18,124.84,25.38,147.92Z" transform="translate(0 0)"/><path class="cls-6" d="M122.8,149.92c-6.39-15.82-22.41-26.32-40.14-26.27-16.84,0-28.51,10.5-29.78,11.67a41.39,41.39,0,0,0-10.06,14.55h22.7Q94.17,149.95,122.8,149.92Z" transform="translate(0 0)"/><polyline class="cls-5" points="60.59 127.7 82.86 149.92 64.11 149.92 50.43 136.25"/><polygon points="87.69 151.92 63.28 151.92 49.02 137.66 51.85 134.83 64.94 147.92 79.02 148.92 60.18 130.12 63 127.29 87.69 151.92"/><polyline class="cls-5" points="103.91 128.91 103.32 129.51 82.86 149.92 101.56 149.92 115.23 136.25"/><path d="M125.77,151.92h-3c-18.77,0-38.19,0-57.28,0H39.82L41,149.1a43.56,43.56,0,0,1,10.54-15.24c2.21-2,14-12.16,31.15-12.21h.12c18.4,0,35.22,11,41.88,27.52Zm-79.83-4H65.52c18,0,36.38,0,54.19,0-6.74-13.44-21.19-22.27-36.93-22.27h-.11c-16,0-27.21,10-28.44,11.14A39.23,39.23,0,0,0,45.94,147.87Z" transform="translate(0 0)"/><polygon points="102.39 151.92 78.02 151.92 102.71 127.28 105.54 130.12 87.69 147.92 100.73 147.92 113.82 134.83 116.65 137.66 102.39 151.92"/><path class="cls-3" d="M22.21,150a59.08,59.08,0,0,1,7.13-14.55,55.24,55.24,0,0,1,6.1-7.67,12.18,12.18,0,0,0,5.47,2.88C48,132.19,54.1,126.09,55.22,125c1.46-1.47,5.18-5.13,5.32-10.5.2-7.42-6.54-13.19-12.25-15.43-6.3-2.49-12.11-1-14.56-.3a27.68,27.68,0,0,0-12.59,7.72C7.8,119.5,3.07,146.11,2.38,150,9,150,15.62,150,22.21,150Z" transform="translate(0 0)"/><path d="M0,152l.41-2.36c1.28-7.29,6.44-32,19.33-44.64a29.79,29.79,0,0,1,13.47-8.22c2.14-.6,8.72-2.44,15.81.37,6.66,2.62,13.74,9.16,13.52,17.34-.16,6.12-4.31,10.26-5.87,11.82-5.2,5.2-10.92,7.4-16.19,6.24a13.37,13.37,0,0,1-4.82-2.12A55,55,0,0,0,31,136.52a56.21,56.21,0,0,0-6.9,14.08L23.65,152H22.21C15.71,152,9,152,2.4,152ZM40.88,99.66a24,24,0,0,0-6.61,1,25.78,25.78,0,0,0-11.72,7.2c-10.92,10.69-16,31.2-17.76,40.13,5.34,0,10.73,0,16,0a60.33,60.33,0,0,1,6.9-13.68A58.24,58.24,0,0,1,34,126.37L35.31,125l1.44,1.25a10.22,10.22,0,0,0,4.58,2.43c5.25,1.15,10.06-2.7,12.46-5.1,1.42-1.43,4.63-4.63,4.75-9.16.18-6.67-6.47-11.74-11-13.51A17.87,17.87,0,0,0,40.88,99.66Z" transform="translate(0 0)"/><path class="cls-7" d="M28,118.76" transform="translate(0 0)"/><path class="cls-7" d="M29.34,116.91" transform="translate(0 0)"/><path class="cls-7" d="M31.93,121.55" transform="translate(0 0)"/><line class="cls-3" x1="31.44" y1="123.7" x2="35.44" y2="127.7"/><rect x="31.44" y="122.87" width="4" height="5.66" transform="translate(-79.08 60.46) rotate(-45)"/><path class="cls-7" d="M40.13,119.11" transform="translate(0 0)"/><path class="cls-7" d="M43.16,121.55" transform="translate(0 0)"/><path class="cls-7" d="M58.1,121.5" transform="translate(0 0)"/><path class="cls-7" d="M53.71,114.52" transform="translate(0 0)"/><path class="cls-3" d="M44.43,119.2A12,12,0,0,1,48.14,123a15,15,0,0,1,1.9,5.91" transform="translate(0 0)"/><path d="M48.05,129.1a13.12,13.12,0,0,0-1.62-5,10.1,10.1,0,0,0-3.07-3.17l2.14-3.38A14,14,0,0,1,49.85,122,17.5,17.5,0,0,1,52,128.74Z" transform="translate(0 0)"/><path class="cls-3" d="M51.8,112.76a11.84,11.84,0,0,1,3.71,3.81,15.19,15.19,0,0,1,1.91,5.91" transform="translate(0 0)"/><path d="M55.43,122.66a13.34,13.34,0,0,0-1.62-5,10,10,0,0,0-3.08-3.16l2.14-3.38a13.81,13.81,0,0,1,4.35,4.46,17.22,17.22,0,0,1,2.19,6.77Z" transform="translate(0 0)"/><path class="cls-3" d="M144.19,150a58.72,58.72,0,0,0-7.13-14.55,55.24,55.24,0,0,0-6.1-7.67,12.18,12.18,0,0,1-5.47,2.88c-7.13,1.56-13.19-4.54-14.31-5.66-1.46-1.47-5.18-5.13-5.32-10.5-.2-7.42,6.54-13.19,12.26-15.43,6.29-2.49,12.11-1,14.55-.3a27.78,27.78,0,0,1,12.6,7.72c13.33,13,18.06,39.65,18.75,43.56C157.47,150,150.83,150,144.19,150Z" transform="translate(0 0)"/><path d="M166.4,152l-2.4,0c-6.53-.05-13.28-.05-19.81-.05h-1.44l-.46-1.37a56.38,56.38,0,0,0-6.88-14.06,54.72,54.72,0,0,0-4.67-6.08,13.57,13.57,0,0,1-4.84,2.13c-5.25,1.15-11-1.05-16.11-6.19-1.62-1.62-5.76-5.76-5.93-11.88-.22-8.18,6.86-14.72,13.52-17.34,7.09-2.81,13.67-1,15.83-.36A29.86,29.86,0,0,1,146.68,105c12.87,12.59,18,37.34,19.31,44.63ZM145.62,148c5.28,0,10.68,0,16,0-1.76-8.94-6.83-29.44-17.74-40.11a25.83,25.83,0,0,0-11.73-7.22c-2-.57-7.45-2.08-13.29.23-4.52,1.77-11.17,6.84-11,13.52.12,4.52,3.33,7.72,4.7,9.09,2.45,2.46,7.26,6.31,12.5,5.17a10.31,10.31,0,0,0,4.59-2.44l1.44-1.25,1.32,1.38a58,58,0,0,1,6.32,7.94A59.75,59.75,0,0,1,145.62,148Z" transform="translate(0 0)"/><path class="cls-7" d="M138.38,118.76" transform="translate(0 0)"/><path class="cls-7" d="M137.11,116.91" transform="translate(0 0)"/><path class="cls-7" d="M134.47,121.55" transform="translate(0 0)"/><line class="cls-3" x1="135.01" y1="123.7" x2="131.01" y2="127.7"/><rect x="130.18" y="123.7" width="5.66" height="4" transform="translate(-49.93 130.87) rotate(-45)"/><path class="cls-7" d="M126.32,119.11" transform="translate(0 0)"/><path class="cls-7" d="M123.29,121.55" transform="translate(0 0)"/><path class="cls-3" d="M122,119.2a12,12,0,0,0-3.71,3.81,15,15,0,0,0-1.9,5.91" transform="translate(0 0)"/><path d="M118.4,129.1l-4-.36a17.41,17.41,0,0,1,2.2-6.77,13.91,13.91,0,0,1,4.34-4.46l2.14,3.38a10.15,10.15,0,0,0-3.07,3.16A13.21,13.21,0,0,0,118.4,129.1Z" transform="translate(0 0)"/><path class="cls-3" d="M114.6,112.76a11.84,11.84,0,0,0-3.71,3.81,15.19,15.19,0,0,0-1.91,5.91" transform="translate(0 0)"/><path d="M111,122.66l-4-.36a17.48,17.48,0,0,1,2.19-6.78,14,14,0,0,1,4.35-4.45l2.14,3.38a9.92,9.92,0,0,0-3.07,3.16A13,13,0,0,0,111,122.66Z" transform="translate(0 0)"/></g></svg>